<svg width="1759" height="408" viewBox="0 0 1759 408" fill="none" xmlns="http://www.w3.org/2000/svg">
<path d="M756.22 108.76C760.073 118.507 762 129.047 762 140.38C762 152.393 759.96 163.387 755.88 173.36C751.8 183.333 745.907 191.833 738.2 198.86C730.72 205.66 720.747 211.213 708.28 215.52C696.947 219.373 683.007 221.3 666.46 221.3H636.2V274.34L646.4 276.04C647.533 276.267 648.44 276.493 649.12 276.72C650.027 276.947 650.82 277.06 651.5 277.06L653.54 277.4C659.207 278.76 662.04 282.273 662.04 287.94V308H564.8V287.94C564.8 282.273 567.633 278.76 573.3 277.4L575.34 277.06L580.44 276.04L590.64 274.34V95.84L580.44 94.14C579.307 93.9133 578.287 93.6866 577.38 93.46C576.7 93.2333 576.02 93.12 575.34 93.12L573.3 92.78C567.633 91.42 564.8 87.9066 564.8 82.24V62.18H666.46C682.78 62.18 697.06 64.1067 709.3 67.96C720.633 71.5867 730.493 77.0266 738.88 84.28C746.587 91.08 752.367 99.24 756.22 108.76ZM713.04 159.42C715.08 153.98 716.1 147.633 716.1 140.38C716.1 134.033 715.08 128.14 713.04 122.7C711 117.487 707.94 112.953 703.86 109.1C700.007 105.473 694.907 102.64 688.56 100.6C682.44 98.56 675.073 97.54 666.46 97.54H636.2V185.6H666.46C675.073 185.6 682.44 184.58 688.56 182.54C694.907 180.273 700.007 177.327 703.86 173.7C707.94 170.073 711 165.313 713.04 159.42ZM847.42 82.58C847.42 85.7533 846.626 89.1533 845.04 92.78C843.68 95.9533 841.753 98.7867 839.26 101.28C836.54 104 833.706 105.927 830.76 107.06C827.36 108.42 823.846 109.1 820.22 109.1C816.593 109.1 813.08 108.42 809.68 107.06C806.96 105.927 804.24 104 801.52 101.28C799.026 98.7867 797.1 95.9533 795.74 92.78C794.38 89.6067 793.7 86.2067 793.7 82.58C793.7 78.9533 794.38 75.44 795.74 72.04C796.873 69.0933 798.8 66.26 801.52 63.54C804.013 61.0467 806.733 59.2333 809.68 58.1C813.76 56.5133 817.273 55.72 820.22 55.72C823.166 55.72 826.68 56.5133 830.76 58.1C834.16 59.46 836.993 61.2733 839.26 63.54C841.98 66.26 843.906 69.0933 845.04 72.04C846.626 75.8933 847.42 79.4067 847.42 82.58ZM858.3 277.4C863.966 278.76 866.8 282.273 866.8 287.94V308H773.3V287.94C773.3 282.273 776.133 278.76 781.8 277.4L783.84 277.06L788.94 276.04L799.14 274.34V167.24L788.94 165.54C787.806 165.313 786.786 165.087 785.88 164.86C785.2 164.633 784.52 164.52 783.84 164.52L781.8 164.18C776.133 162.82 773.3 159.307 773.3 153.64V133.58H840.96V274.34L851.16 276.04C852.293 276.267 853.2 276.493 853.88 276.72C854.786 276.947 855.58 277.06 856.26 277.06L858.3 277.4ZM964.234 130.86C976.7 130.86 988.487 133.013 999.594 137.32C1010.47 141.627 1019.54 147.52 1026.79 155C1034.05 162.48 1039.71 171.887 1043.79 183.22C1047.87 194.327 1049.91 206.68 1049.91 220.28C1049.91 233.88 1047.87 246.347 1043.79 257.68C1039.49 269.24 1033.82 278.76 1026.79 286.24C1019.31 294.173 1010.25 300.18 999.594 304.26C989.167 308.34 977.38 310.38 964.234 310.38C951.087 310.38 939.187 308.34 928.534 304.26C917.88 300.18 908.814 294.173 901.334 286.24C893.4 278.08 887.507 268.56 883.654 257.68C879.574 246.347 877.534 233.88 877.534 220.28C877.534 206.68 879.574 194.327 883.654 183.22C887.507 172.793 893.4 163.387 901.334 155C908.587 147.52 917.654 141.627 928.534 137.32C939.64 133.013 951.54 130.86 964.234 130.86ZM964.234 278.08C978.74 278.08 989.394 273.207 996.194 263.46C1003.22 253.26 1006.73 238.98 1006.73 220.62C1006.73 202.26 1003.22 187.98 996.194 177.78C989.394 167.807 978.74 162.82 964.234 162.82C949.727 162.82 938.847 167.807 931.594 177.78C924.34 187.753 920.714 202.147 920.714 220.96C920.714 239.32 924.34 253.487 931.594 263.46C938.62 273.207 949.5 278.08 964.234 278.08ZM1257 277.4C1262.67 278.76 1265.5 282.273 1265.5 287.94V308H1197.84V197.16C1197.84 186.733 1195.35 178.46 1190.36 172.34C1185.6 166.447 1178.24 163.5 1168.26 163.5C1161.01 163.5 1154.21 165.2 1147.86 168.6C1141.06 172.227 1135.06 176.647 1129.84 181.86V274.34L1139.7 276.04L1144.8 277.06L1146.84 277.4C1152.51 278.76 1155.34 282.273 1155.34 287.94V308H1062.18V287.94C1062.18 282.273 1065.02 278.76 1070.68 277.4L1072.72 277.06L1077.82 276.04L1087.68 274.34V167.24L1077.82 165.54C1076.69 165.313 1075.67 165.087 1074.76 164.86C1074.08 164.633 1073.4 164.52 1072.72 164.52L1070.68 164.18C1065.02 162.82 1062.18 159.307 1062.18 153.64V133.58H1113.52C1118.74 133.58 1122.25 136.187 1124.06 141.4L1127.12 155C1130.3 151.373 1133.92 148.087 1138 145.14C1141.18 142.647 1145.37 140.153 1150.58 137.66C1156.48 134.94 1161.12 133.24 1164.52 132.56C1170.19 131.427 1175.63 130.86 1180.84 130.86C1190.82 130.86 1199.32 132.447 1206.34 135.62C1212.92 138.34 1219.04 142.873 1224.7 149.22C1229.46 154.887 1233.2 161.913 1235.92 170.3C1238.42 177.78 1239.66 186.733 1239.66 197.16V274.34L1249.86 276.04C1251 276.267 1251.9 276.493 1252.58 276.72C1253.49 276.947 1254.28 277.06 1254.96 277.06L1257 277.4ZM1360.62 130.86C1371.72 130.86 1381.81 132.56 1390.88 135.96C1399.49 139.133 1407.42 144.347 1414.68 151.6C1421.25 158.173 1426.46 166.447 1430.32 176.42C1434.17 186.62 1436.1 197.727 1436.1 209.74C1436.1 212.46 1435.87 215.18 1435.42 217.9C1434.96 220.393 1434.51 221.98 1434.06 222.66C1433.6 223.793 1432.58 224.7 1431 225.38C1430.09 225.833 1428.5 226.06 1426.24 226.06H1318.46C1319.82 243.967 1324.69 257.113 1333.08 265.5C1341.46 273.887 1352.57 278.08 1366.4 278.08C1373.42 278.08 1379.2 277.287 1383.74 275.7C1388.72 274.113 1393.03 272.3 1396.66 270.26C1398.24 269.353 1399.83 268.56 1401.42 267.88C1403.23 266.973 1404.93 266.067 1406.52 265.16C1409.01 263.573 1411.62 262.78 1414.34 262.78C1416.15 262.78 1417.74 263.12 1419.1 263.8C1420.23 264.253 1421.25 265.16 1422.16 266.52L1434.4 281.82C1429.18 287.713 1423.97 292.36 1418.76 295.76C1412.64 299.613 1406.63 302.56 1400.74 304.6C1395.07 306.413 1388.61 307.887 1381.36 309.02C1375.69 309.927 1369.34 310.38 1362.32 310.38C1349.85 310.38 1338.63 308.453 1328.66 304.6C1318.68 300.747 1309.62 294.74 1301.46 286.58C1293.75 278.873 1287.63 269.127 1283.1 257.34C1278.79 246.007 1276.64 232.52 1276.64 216.88C1276.64 205.547 1278.56 194.44 1282.42 183.56C1286.04 173.36 1291.6 164.18 1299.08 156.02C1306.1 148.313 1314.83 142.193 1325.26 137.66C1335.68 133.127 1347.47 130.86 1360.62 130.86ZM1361.3 160.78C1349.28 160.78 1339.76 164.293 1332.74 171.32C1325.94 178.12 1321.52 187.867 1319.48 200.56H1398.36C1398.36 195.8 1397.56 190.7 1395.98 185.26C1394.62 180.953 1392.35 176.76 1389.18 172.68C1386.23 169.053 1382.38 166.22 1377.62 164.18C1372.4 161.913 1366.96 160.78 1361.3 160.78ZM1530.28 130.86C1541.39 130.86 1551.48 132.56 1560.54 135.96C1569.16 139.133 1577.09 144.347 1584.34 151.6C1590.92 158.173 1596.13 166.447 1599.98 176.42C1603.84 186.62 1605.76 197.727 1605.76 209.74C1605.76 212.46 1605.54 215.18 1605.08 217.9C1604.63 220.393 1604.18 221.98 1603.72 222.66C1603.27 223.793 1602.25 224.7 1600.66 225.38C1599.76 225.833 1598.17 226.06 1595.9 226.06H1488.12C1489.48 243.967 1494.36 257.113 1502.74 265.5C1511.13 273.887 1522.24 278.08 1536.06 278.08C1543.09 278.08 1548.87 277.287 1553.4 275.7C1558.39 274.113 1562.7 272.3 1566.32 270.26C1567.91 269.353 1569.5 268.56 1571.08 267.88C1572.9 266.973 1574.6 266.067 1576.18 265.16C1578.68 263.573 1581.28 262.78 1584 262.78C1585.82 262.78 1587.4 263.12 1588.76 263.8C1589.9 264.253 1590.92 265.16 1591.82 266.52L1604.06 281.82C1598.85 287.713 1593.64 292.36 1588.42 295.76C1582.3 299.613 1576.3 302.56 1570.4 304.6C1564.74 306.413 1558.28 307.887 1551.02 309.02C1545.36 309.927 1539.01 310.38 1531.98 310.38C1519.52 310.38 1508.3 308.453 1498.32 304.6C1488.35 300.747 1479.28 294.74 1471.12 286.58C1463.42 278.873 1457.3 269.127 1452.76 257.34C1448.46 246.007 1446.3 232.52 1446.3 216.88C1446.3 205.547 1448.23 194.44 1452.08 183.56C1455.71 173.36 1461.26 164.18 1468.74 156.02C1475.77 148.313 1484.5 142.193 1494.92 137.66C1505.35 133.127 1517.14 130.86 1530.28 130.86ZM1530.96 160.78C1518.95 160.78 1509.43 164.293 1502.4 171.32C1495.6 178.12 1491.18 187.867 1489.14 200.56H1568.02C1568.02 195.8 1567.23 190.7 1565.64 185.26C1564.28 180.953 1562.02 176.76 1558.84 172.68C1555.9 169.053 1552.04 166.22 1547.28 164.18C1542.07 161.913 1536.63 160.78 1530.96 160.78ZM1732.93 130.52C1741.77 130.52 1748.91 132.447 1754.35 136.3L1748.91 167.92C1748.68 169.96 1748 171.32 1746.87 172C1745.51 172.907 1743.92 173.36 1742.11 173.36C1740.52 173.36 1738.26 173.02 1735.31 172.34C1731.23 171.433 1727.26 170.98 1723.41 170.98C1714.57 170.98 1707.09 173.36 1700.97 178.12C1695.3 182.427 1690.09 189.567 1685.33 199.54V274.34L1702.33 277.4C1708 278.76 1710.83 282.273 1710.83 287.94V308H1617.67V287.94C1617.67 282.273 1620.5 278.76 1626.17 277.4L1643.17 274.34V167.24L1626.17 164.18C1620.5 162.82 1617.67 159.307 1617.67 153.64V133.58H1667.99C1672.3 133.58 1675.24 134.373 1676.83 135.96C1678.42 137.547 1679.55 140.267 1680.23 144.12L1682.95 165.2C1689.07 154.093 1696.32 145.593 1704.71 139.7C1713.32 133.58 1722.73 130.52 1732.93 130.52Z" fill="#1a191b"/>
<rect x="89.6753" y="62.5706" width="246.39" height="21.5055" rx="5" fill="url(#paint0_linear_104_94)"/>
<path fill-rule="evenodd" clip-rule="evenodd" d="M265.328 146.345C264.084 147.291 263.354 148.763 263.354 150.325V338C263.354 340.761 261.116 343 258.354 343H241.166C238.405 343 236.166 340.761 236.166 338V178.605C236.166 174.469 231.432 172.121 228.14 174.625L191.548 202.451C190.304 203.396 189.574 204.869 189.574 206.431V338C189.574 340.761 187.336 343 184.574 343H167.386C164.625 343 162.386 340.761 162.386 338V234.71C162.386 230.575 157.652 228.227 154.36 230.73L117.768 258.556C116.525 259.502 115.795 260.974 115.795 262.536V338C115.795 340.761 113.556 343 110.795 343L94.6753 343C91.9139 343 89.6753 340.761 89.6753 338V279.919V95.0958C89.6753 92.3344 91.9139 90.0958 94.6753 90.0958H333.608C334.965 90.0958 336.065 91.196 336.065 92.5532V92.5532V338C336.065 340.761 333.827 343 331.065 343L314.946 343C312.185 343 309.946 340.761 309.946 338V122.499C309.946 118.363 305.212 116.016 301.92 118.519L265.328 146.345Z" fill="url(#paint1_linear_104_94)"/>
<path fill-rule="evenodd" clip-rule="evenodd" d="M41.6402 102.51C64.6374 102.51 83.2803 84.7112 83.2803 62.7551V62.7551C83.2803 62.653 83.1974 62.5705 83.0953 62.5705H53.779C52.891 62.5705 52.2381 63.4029 52.2381 64.2909V64.2909C52.2381 68.5667 48.7299 72.0329 44.4024 72.0329C40.0748 72.0329 36.5666 68.5667 36.5666 64.2909C36.5666 60.0152 40.0748 56.549 44.4024 56.549L44.4138 56.549H380.446C380.458 56.549 380.468 56.559 380.468 56.5713V56.5713C380.468 56.5846 380.48 56.5949 380.493 56.5935C380.771 56.5641 381.053 56.549 381.339 56.549C385.666 56.549 389.174 60.0152 389.174 64.2909C389.174 68.5667 385.666 72.0329 381.339 72.0329C377.011 72.0329 373.503 68.5667 373.503 64.2909V64.2909C373.503 63.403 372.85 62.5705 371.962 62.5705H340.905C340.803 62.5705 340.72 62.653 340.72 62.7551V62.7551C340.72 84.7112 359.363 102.51 382.36 102.51C405.357 102.51 424 84.7112 424 62.7551C424 41.1586 405.963 23.5842 383.486 23.0143C383.482 23.0142 383.479 23.011 383.479 23.0071V23.0071C383.479 23.0032 383.476 23 383.472 23H382.36H41.8793C41.8792 23 41.879 23.0001 41.879 23.0003V23.0003C41.879 23.0005 41.8789 23.0006 41.8787 23.0006C41.7992 23.0002 41.7197 23 41.6402 23C18.6429 23 0 40.799 0 62.7551C0 84.7112 18.6429 102.51 41.6402 102.51Z" fill="url(#paint2_linear_104_94)"/>
<defs>
<linearGradient id="paint0_linear_104_94" x1="156.206" y1="50.9218" x2="157.714" y2="87.2443" gradientUnits="userSpaceOnUse">
<stop offset="0.438583" stop-color="#E217DA"/>
<stop offset="1" stop-color="#1768E2"/>
</linearGradient>
<linearGradient id="paint1_linear_104_94" x1="156.206" y1="-46.8939" x2="324.895" y2="298.642" gradientUnits="userSpaceOnUse">
<stop offset="0.438583" stop-color="#E217DA"/>
<stop offset="1" stop-color="#1768E2"/>
</linearGradient>
<linearGradient id="paint2_linear_104_94" x1="114.489" y1="-20.068" x2="126.392" y2="113.394" gradientUnits="userSpaceOnUse">
<stop offset="0.438583" stop-color="#E217DA"/>
<stop offset="1" stop-color="#1768E2"/>
</linearGradient>
</defs>
</svg>
